<svg id="Calque_1" data-name="Calque 1" xmlns="http://www.w3.org/2000/svg" viewBox="0 0 314.68 31.91"><defs><style>.cls-1{fill:#132448;}</style></defs><title>audioxp_img</title><path class="cls-1" d="M538.1,372.48a3.29,3.29,0,0,0-.4-.21l-.36-.14a2.1,2.1,0,0,0-.46-.07l-.5,0h-3.45v18.29q0,.37,0,.68a2.47,2.47,0,0,0,.11.54l.31.61h-4.63l.31-.61a1.93,1.93,0,0,0,.12-.54,6.28,6.28,0,0,0,0-.68V372.05h-4a2.33,2.33,0,0,0-.54.1,2.71,2.71,0,0,0-.68.32v-3.94H538.1Z" transform="translate(-524.04 -367.64)"/><path class="cls-1" d="M555.76,392.17h-4.45l.31-.61a3.81,3.81,0,0,0,.16-1.21v-7.12a6.79,6.79,0,0,0-.2-1.86,3.64,3.64,0,0,0-1-1.53,3.53,3.53,0,0,0-1.38-.81,5.52,5.52,0,0,0-1.72-.26,3.27,3.27,0,0,0-1.63.43,11.37,11.37,0,0,0-1.41,1.08l-.35.31v9.77q0,.37,0,.67a2.4,2.4,0,0,0,.14.59,2.36,2.36,0,0,0,.3.57h-4.45l.31-.61a3.82,3.82,0,0,0,.16-1.22v-21a.9.9,0,0,0-.14-.45,1.16,1.16,0,0,0-.33-.37h4v8.18l.71-.43a4.8,4.8,0,0,1,1.44-.58,8.44,8.44,0,0,1,1.79-.17,7.24,7.24,0,0,1,3.61,1,7,7,0,0,1,3.39,4.45,10.41,10.41,0,0,1,.24,2.29v7.1q0,.37,0,.67a2.09,2.09,0,0,0,.13.55Z" transform="translate(-524.04 -367.64)"/><path class="cls-1" d="M575.18,385.5h-13.8l.31.78a4.7,4.7,0,0,0,1.9,2.27,7.35,7.35,0,0,0,2.84.94l.34,0h.34a6.46,6.46,0,0,0,2.29-.45,7.39,7.39,0,0,0,1.71-.91l.61-.45v4.43a2.42,2.42,0,0,1-.38-.15.93.93,0,0,0-.46-.11q-1.35.31-2.48.53a10.16,10.16,0,0,1-1.81.21,8.8,8.8,0,0,1-3.43-.67,9.12,9.12,0,0,1-2.83-1.87,8.24,8.24,0,0,1-1.9-2.79,8.43,8.43,0,0,1-.66-3.25,8.61,8.61,0,0,1,1.22-4.43,8.28,8.28,0,0,1,3-3,7.91,7.91,0,0,1,4-1.1,9.66,9.66,0,0,1,4.65,1.1,7.75,7.75,0,0,1,3.41,3.58,8.57,8.57,0,0,1,.71,2.35q0,.14.24,2.11Zm-3.76-3.12-.29-.78a4.06,4.06,0,0,0-1.85-2.09,5.83,5.83,0,0,0-3.07-.86,4.7,4.7,0,0,0-2.86,1,5.27,5.27,0,0,0-1.73,2.11l-.27.62Z" transform="translate(-524.04 -367.64)"/><path class="cls-1" d="M605.92,392.17h-5.67a3,3,0,0,0,.25-.44,1.18,1.18,0,0,0,.07-.44,1.76,1.76,0,0,0-.06-.48,5.6,5.6,0,0,0-.22-.58l-1.65-3.68h-8.43l-1.59,4q-.1.26-.18.51a1.57,1.57,0,0,0-.08.45.74.74,0,0,0,.07.33,2,2,0,0,0,.25.35h-5.47a6,6,0,0,0,.71-.55,2,2,0,0,0,.31-.49l.49-1q.25-.55.47-1.11l8.8-21.4,10.49,22.67a3.46,3.46,0,0,0,.24.5l.31.46A6.35,6.35,0,0,0,605.92,392.17Zm-8.74-9.1-3-6.67-2.68,6.67Z" transform="translate(-524.04 -367.64)"/><path class="cls-1" d="M623.47,389.23l-.59.18a2.51,2.51,0,0,0-.47.21l-2.59,1.86a8.19,8.19,0,0,1-4.29,1.18,7.32,7.32,0,0,1-3.57-.9,6.66,6.66,0,0,1-2.55-2.37,6,6,0,0,1-.77-2,13.36,13.36,0,0,1-.19-2.36v-7.1c0-.25,0-.47,0-.67a2.45,2.45,0,0,0-.42-1.16h4.43l-.33.61a1.74,1.74,0,0,0-.12.5q0,.25,0,.72V385a7.07,7.07,0,0,0,.23,2,3.37,3.37,0,0,0,.93,1.45,3.75,3.75,0,0,0,1.33.79,4.93,4.93,0,0,0,1.64.26,3.68,3.68,0,0,0,1.63-.35,7,7,0,0,0,1.4-1l.37-.31v-9.92a6.13,6.13,0,0,0,0-.66,2.72,2.72,0,0,0-.13-.56l-.31-.61h4.45a2.39,2.39,0,0,0-.29.53,2.46,2.46,0,0,0-.14.62,6.26,6.26,0,0,0,0,.68v10.16a.81.81,0,0,0,.06.28l.12.29.12.27C623.33,389,623.39,389.1,623.47,389.23Z" transform="translate(-524.04 -367.64)"/><path class="cls-1" d="M642.06,389.23l-.57.1a1.77,1.77,0,0,0-.59.29l-1.78,1.43a8.52,8.52,0,0,1-2.06,1.16,8,8,0,0,1-2.8.45,8.3,8.3,0,0,1-5.94-2.43,8.06,8.06,0,0,1-2.61-6,8.85,8.85,0,0,1,2.26-6.07,7.18,7.18,0,0,1,5.6-2.56,9.43,9.43,0,0,1,2.33.28,7.75,7.75,0,0,1,1.94.75l.39.24v-7.2a2.35,2.35,0,0,0-.06-.57,1,1,0,0,0-.15-.35l-.15-.2h3.86V388a1.28,1.28,0,0,0,0,.31l.08.31Zm-3.82-1.67V380.8l-.47-.55a4.09,4.09,0,0,0-1.56-1,5.46,5.46,0,0,0-2.09-.43,4.76,4.76,0,0,0-3.58,1.5A5.11,5.11,0,0,0,629.1,384a5.49,5.49,0,0,0,1.29,3.67,4.7,4.7,0,0,0,3.29,1.71,8.56,8.56,0,0,0,2.16-.26,4,4,0,0,0,1.67-.86Z" transform="translate(-524.04 -367.64)"/><path class="cls-1" d="M649.08,392.17h-4.43l.31-.61a2,2,0,0,0,.12-.54,6.37,6.37,0,0,0,0-.68V376.92a1,1,0,0,0-.13-.44,1.12,1.12,0,0,0-.32-.38h4v14.25q0,.37,0,.67a2.16,2.16,0,0,0,.12.55Zm0-20.08a2,2,0,0,1-.66,1.48,2.2,2.2,0,0,1-1.56.62,2.17,2.17,0,0,1-1.54-.62,2,2,0,0,1-.66-1.48,2.18,2.18,0,0,1,.65-1.57,2.08,2.08,0,0,1,1.55-.67,2.13,2.13,0,0,1,1.57.65A2.16,2.16,0,0,1,649.08,372.09Z" transform="translate(-524.04 -367.64)"/><path class="cls-1" d="M669.08,384.05a8.6,8.6,0,0,1-8.63,8.61,8.1,8.1,0,0,1-6-2.55,8.34,8.34,0,0,1-2.51-6.06,8.57,8.57,0,0,1,8.49-8.51,8.39,8.39,0,0,1,6.11,2.48A8.14,8.14,0,0,1,669.08,384.05Zm-3.31.12a5.2,5.2,0,0,0-1.54-3.79,5.1,5.1,0,0,0-3.77-1.56,4.91,4.91,0,0,0-3.62,1.6,5.2,5.2,0,0,0-1.56,3.75,5.29,5.29,0,0,0,5.18,5.22,5.17,5.17,0,0,0,3.74-1.54A5,5,0,0,0,665.76,384.17Z" transform="translate(-524.04 -367.64)"/><path class="cls-1" d="M690.55,392.17H677.41l.31-.61a3.82,3.82,0,0,0,.16-1.22V370.11a2.91,2.91,0,0,0-.16-1l-.31-.61h13.14v3.94a3.33,3.33,0,0,0-.4-.21l-.35-.14a2,2,0,0,0-.47-.07l-.52,0h-7.23v6.49h4.78l.42,0a1.41,1.41,0,0,0,.41-.12,3.37,3.37,0,0,0,.54-.31v4.41l-.37-.22a1.86,1.86,0,0,0-.45-.18,2.07,2.07,0,0,0-.51-.06h-4.82v6.61h7.51a2.55,2.55,0,0,0,.69-.07,2.29,2.29,0,0,0,.39-.15l.39-.22Z" transform="translate(-524.04 -367.64)"/><path class="cls-1" d="M712.76,392.17h-5.53c0-.2.08-.4.14-.61a.47.47,0,0,0-.08-.44q0-.08-.73-.91l-3.35-4.06-3.67,4.29-.59.75a.55.55,0,0,0-.1.44l.2.53h-5.49l.41-.32a1.47,1.47,0,0,0,.36-.38,4.89,4.89,0,0,1,.66-.69l.39-.36,5.66-6.78-4.8-5.82q-.24-.25-.52-.61t-.38-.5a1.43,1.43,0,0,0-.33-.32l-.37-.29h5.49a.92.92,0,0,0-.14.26l-.12.31a.44.44,0,0,0,.06.41q0,.08.62.77l2.73,3.19,2.53-3q.49-.59.57-.71.29-.41.2-.63a.68.68,0,0,1-.06-.3,1,1,0,0,0,0-.3h5.37a6.16,6.16,0,0,0-.55.39,2.21,2.21,0,0,0-.35.35L710,378l-4.62,5.57,5.39,6.63.67.71.46.51a2.72,2.72,0,0,0,.34.33A5.7,5.7,0,0,0,712.76,392.17Z" transform="translate(-524.04 -367.64)"/><path class="cls-1" d="M731.31,384.06a8.61,8.61,0,0,1-2.36,6,7.5,7.5,0,0,1-5.71,2.55,9.4,9.4,0,0,1-2.34-.28,7.34,7.34,0,0,1-1.93-.78l-.39-.23v6.37a6.28,6.28,0,0,0,0,.65,2.27,2.27,0,0,0,.15.6,2.68,2.68,0,0,0,.29.56h-4.45a3,3,0,0,0,.31-.61,1.87,1.87,0,0,0,.12-.54,6.08,6.08,0,0,0,0-.66V380.26a1.27,1.27,0,0,0,0-.32c0-.12-.05-.23-.07-.3l-.18-.63a4,4,0,0,0,.64-.12,1.37,1.37,0,0,0,.52-.27q2.18-1.74,2.75-2.08a7.64,7.64,0,0,1,3.9-1,8.65,8.65,0,0,1,6.1,2.39A8,8,0,0,1,731.31,384.06Zm-3.39.22a5.57,5.57,0,0,0-1.24-3.68,5,5,0,0,0-3.51-1.76h-.51a4.79,4.79,0,0,0-3.35,1.21l-.75.67v6.73l.47.57a4,4,0,0,0,1.57,1,5.66,5.66,0,0,0,2.1.42,5.07,5.07,0,0,0,3.7-1.5A4.93,4.93,0,0,0,727.92,384.28Z" transform="translate(-524.04 -367.64)"/><path class="cls-1" d="M750.56,385.5h-13.8l.31.78a4.7,4.7,0,0,0,1.9,2.27,7.35,7.35,0,0,0,2.84.94l.34,0h.34a6.46,6.46,0,0,0,2.29-.45,7.39,7.39,0,0,0,1.71-.91l.61-.45v4.43a2.42,2.42,0,0,1-.38-.15.93.93,0,0,0-.46-.11q-1.35.31-2.48.53a10.16,10.16,0,0,1-1.81.21,8.8,8.8,0,0,1-3.43-.67,9.12,9.12,0,0,1-2.83-1.87,8.24,8.24,0,0,1-1.9-2.79,8.42,8.42,0,0,1-.66-3.25,8.61,8.61,0,0,1,1.22-4.43,8.28,8.28,0,0,1,3-3,7.9,7.9,0,0,1,4-1.1,9.66,9.66,0,0,1,4.65,1.1,7.75,7.75,0,0,1,3.41,3.58,8.55,8.55,0,0,1,.71,2.35q0,.14.24,2.11Zm-3.76-3.12-.29-.78a4.05,4.05,0,0,0-1.85-2.09,5.83,5.83,0,0,0-3.07-.86,4.7,4.7,0,0,0-2.86,1,5.28,5.28,0,0,0-1.73,2.11l-.27.62Z" transform="translate(-524.04 -367.64)"/><path class="cls-1" d="M760.09,379.29a3.94,3.94,0,0,1-.5,0,4,4,0,0,0-.52,0,3.35,3.35,0,0,0-.69.08,3,3,0,0,0-1.49.82l-.35.35v9.9c0,.25,0,.47,0,.67a2.37,2.37,0,0,0,.44,1.16h-4.45l.31-.61a3.82,3.82,0,0,0,.16-1.22V379.94a1.61,1.61,0,0,0,0-.27l-.08-.28,0-.2a1.25,1.25,0,0,0-.12-.27l.35-.08a1.27,1.27,0,0,0,.47-.2,11.47,11.47,0,0,0,1.41-1.27,5,5,0,0,1,2-1.18l1.56-.28a3.32,3.32,0,0,0,.9-.26,5.29,5.29,0,0,0,.66-.41Z" transform="translate(-524.04 -367.64)"/><path class="cls-1" d="M767.05,392.17h-4.43l.31-.61a2,2,0,0,0,.12-.54,6.5,6.5,0,0,0,0-.68V376.92a1,1,0,0,0-.13-.44,1.11,1.11,0,0,0-.32-.38h4v14.25q0,.37,0,.67a2.18,2.18,0,0,0,.12.55Zm0-20.08a2,2,0,0,1-.66,1.48,2.2,2.2,0,0,1-1.56.62,2.17,2.17,0,0,1-1.54-.62,2,2,0,0,1-.66-1.48,2.18,2.18,0,0,1,.65-1.57,2.08,2.08,0,0,1,1.55-.67,2.13,2.13,0,0,1,1.57.65A2.16,2.16,0,0,1,767.05,372.09Z" transform="translate(-524.04 -367.64)"/><path class="cls-1" d="M787.17,385.5h-13.8l.31.78a4.7,4.7,0,0,0,1.9,2.27,7.35,7.35,0,0,0,2.84.94l.34,0h.34a6.45,6.45,0,0,0,2.29-.45,7.42,7.42,0,0,0,1.71-.91l.61-.45v4.43a2.42,2.42,0,0,1-.38-.15.93.93,0,0,0-.46-.11q-1.35.31-2.48.53a10.15,10.15,0,0,1-1.81.21,8.79,8.79,0,0,1-3.43-.67,9.12,9.12,0,0,1-2.83-1.87,8.25,8.25,0,0,1-1.9-2.79,8.44,8.44,0,0,1-.66-3.25,8.61,8.61,0,0,1,1.22-4.43,8.28,8.28,0,0,1,3-3,7.91,7.91,0,0,1,4-1.1,9.67,9.67,0,0,1,4.65,1.1,7.76,7.76,0,0,1,3.41,3.58,8.59,8.59,0,0,1,.71,2.35q0,.14.24,2.11Zm-3.77-3.12-.29-.78a4.06,4.06,0,0,0-1.85-2.09,5.83,5.83,0,0,0-3.07-.86,4.7,4.7,0,0,0-2.86,1,5.28,5.28,0,0,0-1.72,2.11l-.28.62Z" transform="translate(-524.04 -367.64)"/><path class="cls-1" d="M804.84,392.17h-4.45a2.44,2.44,0,0,0,.29-.53,2.54,2.54,0,0,0,.14-.62,6.53,6.53,0,0,0,0-.68v-7.13a6.79,6.79,0,0,0-.2-1.87,3.5,3.5,0,0,0-1-1.53,3.63,3.63,0,0,0-1.31-.81,4.82,4.82,0,0,0-1.63-.27,3.66,3.66,0,0,0-1.63.35,7.83,7.83,0,0,0-1.41,1l-.35.31v9.94c0,.25,0,.47,0,.67a2.13,2.13,0,0,0,.13.55l.31.61h-4.45l.31-.61a2,2,0,0,0,.12-.54,6.5,6.5,0,0,0,0-.68V380.18a.69.69,0,0,0-.06-.27l-.12-.27-.31-.61.53-.16a2.14,2.14,0,0,0,.55-.24l2.59-1.88a8.08,8.08,0,0,1,4.29-1.2,7.13,7.13,0,0,1,3.56.92,6.84,6.84,0,0,1,2.54,2.4,6.39,6.39,0,0,1,.82,2.18,13.62,13.62,0,0,1,.14,2.2v7.11a6.13,6.13,0,0,0,0,.66,2.79,2.79,0,0,0,.13.56Z" transform="translate(-524.04 -367.64)"/><path class="cls-1" d="M819.29,380.44l-1-.75a3.4,3.4,0,0,0-1.35-.6,8.35,8.35,0,0,0-1.84-.19,4.49,4.49,0,0,0-3.41,1.55,5.16,5.16,0,0,0-1.43,3.62,5.44,5.44,0,0,0,1.43,3.78,4.58,4.58,0,0,0,3.55,1.59,6,6,0,0,0,1.87-.3,4,4,0,0,0,1.36-.67l.57-.48v4.39l-.36-.12a1.17,1.17,0,0,0-.3,0q-.12,0-1.75.28a8.8,8.8,0,0,1-1.37.15l-.39,0a8.22,8.22,0,0,1-5.67-2.76,8.64,8.64,0,0,1-2.16-5.92,8,8,0,0,1,2.41-5.84,7.89,7.89,0,0,1,5.8-2.43,7.45,7.45,0,0,1,1.48.18l1.73.37.29,0a4,4,0,0,1,.49-.1Z" transform="translate(-524.04 -367.64)"/><path class="cls-1" d="M838.72,385.5h-13.8l.31.78a4.7,4.7,0,0,0,1.9,2.27,7.35,7.35,0,0,0,2.84.94l.34,0h.34a6.46,6.46,0,0,0,2.29-.45,7.39,7.39,0,0,0,1.71-.91l.61-.45v4.43a2.42,2.42,0,0,1-.38-.15.93.93,0,0,0-.46-.11q-1.35.31-2.48.53a10.16,10.16,0,0,1-1.81.21,8.8,8.8,0,0,1-3.43-.67,9.12,9.12,0,0,1-2.83-1.87,8.23,8.23,0,0,1-1.9-2.79,8.44,8.44,0,0,1-.66-3.25,8.61,8.61,0,0,1,1.21-4.43,8.29,8.29,0,0,1,3-3,7.91,7.91,0,0,1,4-1.1,9.67,9.67,0,0,1,4.65,1.1,7.75,7.75,0,0,1,3.41,3.58,8.59,8.59,0,0,1,.71,2.35q0,.14.23,2.11ZM835,382.39l-.29-.78a4.06,4.06,0,0,0-1.85-2.09,5.83,5.83,0,0,0-3.07-.86,4.7,4.7,0,0,0-2.86,1,5.27,5.27,0,0,0-1.73,2.11l-.27.62Z" transform="translate(-524.04 -367.64)"/></svg>