
<svg width="64px" height="64px" viewBox="134 30 24 18" version="1.1" xmlns="http://www.w3.org/2000/svg" xmlns:xlink="http://www.w3.org/1999/xlink">
    <!-- Generator: Sketch 41 (35326) - http://www.bohemiancoding.com/sketch -->
    <desc>Created with Sketch.</desc>
    <defs>
        <polygon id="path-1" points="17.999 17.94 0 17.94 0 8.97 0 0 17.999 0 17.999 17.94"></polygon>
    </defs>
    <g id="In-Black-0p25in-R" stroke="none" stroke-width="1" fill="none" fill-rule="evenodd" transform="translate(134.000000, 30.000000)">
        <g id="Group-3">
            <mask id="mask-2" fill="white">
                <use xlink:href="#path-1"></use>
            </mask>
            <g id="Clip-2"></g>
            <path d="M15.338,15.338 L12.669,15.338 L12.669,11.16 C12.669,10.164 12.651,8.883 11.281,8.883 C9.893,8.883 9.681,9.969 9.681,11.089 L9.681,15.338 L7.014,15.338 L7.014,6.748 L9.572,6.748 L9.572,7.922 L9.609,7.922 C9.966,7.247 10.836,6.535 12.135,6.535 C14.839,6.535 15.338,8.313 15.338,10.627 L15.338,15.338 Z M4.004,5.575 C3.146,5.575 2.454,4.881 2.454,4.026 C2.454,3.172 3.146,2.478 4.004,2.478 C4.857,2.478 5.551,3.172 5.551,4.026 C5.551,4.881 4.857,5.575 4.004,5.575 Z M2.666,15.338 L5.339,15.338 L5.339,6.748 L2.666,6.748 L2.666,15.338 Z M16.667,0 L1.327,0 C0.595,0 0,0.581 0,1.298 L0,16.701 C0,17.418 0.595,18 1.327,18 L16.667,18 C17.401,18 17.999,17.418 17.999,16.701 L17.999,1.298 C17.999,0.581 17.401,0 16.667,0 L16.667,0 Z" id="Fill-1" fill="#152E4C" mask="url(#mask-2)"></path>
        </g>
        <path d="M21.289,13.655 L20.914,13.655 L20.914,12.894 L21.389,12.894 C21.635,12.894 21.916,12.935 21.916,13.256 C21.916,13.625 21.633,13.655 21.289,13.655 Z M21.662,13.88 C22.041,13.834 22.239,13.625 22.239,13.274 C22.239,12.846 21.98,12.639 21.447,12.639 L20.591,12.639 L20.591,14.889 L20.914,14.889 L20.914,13.909 L21.312,13.909 L21.32,13.921 L21.937,14.889 L22.282,14.889 L21.619,13.886 L21.662,13.88 L21.662,13.88 Z" id="Fill-4" fill="#152E4C"></path>
        <path d="M21.325,15.616 C20.306,15.616 19.508,14.812 19.508,13.766 C19.508,12.723 20.306,11.917 21.325,11.917 C22.345,11.917 23.144,12.723 23.144,13.766 C23.144,14.812 22.345,15.616 21.325,15.616 Z M21.325,11.638 C20.13,11.638 19.193,12.573 19.193,13.766 C19.193,14.961 20.13,15.894 21.325,15.894 C22.521,15.894 23.455,14.961 23.455,13.766 C23.455,12.573 22.521,11.638 21.325,11.638 L21.325,11.638 Z" id="Fill-5" fill="#152E4C"></path>
    </g>
</svg>
