<?xml version="1.0" encoding="iso-8859-1"?>
<!-- Generator: Adobe Illustrator 21.0.2, SVG Export Plug-In . SVG Version: 6.00 Build 0)  -->
<svg version="1.1" id="Calque_1" xmlns="http://www.w3.org/2000/svg" xmlns:xlink="http://www.w3.org/1999/xlink" x="0px" y="0px"
	 viewBox="0 0 1366 768" style="enable-background:new 0 0 1366 768;" xml:space="preserve">
<g>
	<path d="M538.098,372.484c-0.131-0.079-0.265-0.147-0.402-0.206c-0.138-0.059-0.258-0.104-0.363-0.137
		c-0.105-0.033-0.258-0.056-0.461-0.069c-0.203-0.013-0.37-0.02-0.5-0.02c-0.157,0-0.291,0-0.402,0c-0.111,0-0.206,0-0.285,0h-2.765
		v18.293c0,0.248,0.01,0.474,0.03,0.676c0.02,0.203,0.055,0.384,0.107,0.541l0.314,0.607h-4.627l0.313-0.607
		c0.052-0.118,0.091-0.298,0.118-0.54s0.04-0.468,0.04-0.677v-18.293h-2.765c-0.314,0-0.543,0-0.687,0
		c-0.183,0-0.353,0.003-0.51,0.01c-0.157,0.007-0.337,0.04-0.539,0.098c-0.203,0.059-0.429,0.167-0.677,0.324v-3.941h14.059V372.484
		z"/>
	<path d="M555.765,392.17h-4.451l0.313-0.607c0.104-0.301,0.157-0.705,0.157-1.215v-7.118c0-0.811-0.065-1.432-0.196-1.863
		c-0.17-0.549-0.497-1.059-0.98-1.53c-0.379-0.366-0.84-0.637-1.382-0.813s-1.115-0.265-1.716-0.265
		c-0.575,0-1.118,0.144-1.627,0.431c-0.313,0.184-0.784,0.543-1.412,1.079l-0.353,0.313v9.766c0,0.248,0.01,0.47,0.029,0.666
		c0.02,0.195,0.065,0.393,0.137,0.588c0.072,0.196,0.173,0.387,0.304,0.568h-4.451l0.314-0.607c0.104-0.301,0.157-0.707,0.157-1.217
		v-20.979c0-0.144-0.046-0.294-0.137-0.451c-0.092-0.157-0.203-0.281-0.333-0.373h3.98v8.177l0.706-0.432
		c0.458-0.274,0.938-0.467,1.441-0.579c0.503-0.111,1.101-0.167,1.794-0.167c1.268,0,2.47,0.32,3.607,0.961
		c1.072,0.602,1.909,1.392,2.51,2.373c0.431,0.693,0.725,1.386,0.882,2.078c0.157,0.693,0.235,1.458,0.235,2.294v7.099
		c0,0.248,0.01,0.47,0.029,0.666c0.02,0.195,0.062,0.379,0.127,0.549L555.765,392.17z"/>
	<path d="M575.176,385.504h-13.804l0.313,0.784c0.393,0.968,1.026,1.726,1.902,2.274c0.771,0.471,1.719,0.785,2.843,0.941
		c0.118,0.014,0.232,0.023,0.343,0.029c0.111,0.007,0.226,0.01,0.343,0.01c0.745,0,1.51-0.148,2.294-0.445
		c0.641-0.246,1.209-0.551,1.706-0.912l0.608-0.446v4.431c-0.066-0.014-0.193-0.062-0.382-0.146
		c-0.19-0.085-0.343-0.121-0.461-0.107c-0.902,0.209-1.729,0.385-2.48,0.529c-0.752,0.144-1.356,0.215-1.813,0.215
		c-1.229,0-2.373-0.222-3.432-0.665c-1.059-0.444-2.003-1.067-2.833-1.87c-0.83-0.804-1.464-1.734-1.902-2.791
		c-0.438-1.059-0.657-2.142-0.657-3.252c0-1.566,0.405-3.042,1.216-4.426c0.758-1.28,1.774-2.285,3.049-3.017
		c1.274-0.731,2.604-1.097,3.99-1.097c1.738,0,3.288,0.366,4.647,1.096c1.516,0.809,2.654,2.002,3.412,3.581
		c0.326,0.678,0.562,1.461,0.706,2.348c0.013,0.091,0.091,0.796,0.235,2.113L575.176,385.504z M571.412,382.386l-0.294-0.78
		c-0.288-0.819-0.905-1.515-1.853-2.087s-1.971-0.858-3.069-0.858c-1.02,0-1.974,0.332-2.862,0.995
		c-0.798,0.598-1.373,1.3-1.726,2.107l-0.274,0.624H571.412z"/>
	<path d="M605.921,392.17h-5.667c0.118-0.184,0.199-0.33,0.245-0.442c0.046-0.111,0.069-0.259,0.069-0.442s-0.02-0.344-0.059-0.482
		c-0.039-0.138-0.111-0.33-0.215-0.58l-1.647-3.68h-8.432l-1.588,3.975c-0.065,0.171-0.124,0.342-0.176,0.512
		s-0.079,0.321-0.079,0.453c0,0.131,0.023,0.242,0.069,0.334c0.045,0.092,0.127,0.21,0.245,0.354h-5.471
		c0.418-0.302,0.653-0.486,0.706-0.552c0.118-0.132,0.222-0.296,0.314-0.493c0.209-0.421,0.373-0.75,0.49-0.986
		c0.169-0.369,0.327-0.737,0.471-1.105l8.803-21.397l10.49,22.671c0.091,0.226,0.17,0.39,0.235,0.495
		c0.013,0.027,0.118,0.179,0.314,0.456C605.3,391.59,605.594,391.893,605.921,392.17z M597.186,383.068l-3.019-6.666l-2.68,6.669
		L597.186,383.068z"/>
	<path d="M623.469,389.229c-0.235,0.065-0.431,0.124-0.588,0.177c-0.157,0.052-0.313,0.124-0.47,0.215
		c-0.863,0.628-1.726,1.249-2.588,1.863c-1.307,0.784-2.739,1.176-4.294,1.176c-1.281,0-2.471-0.301-3.569-0.901
		s-1.948-1.392-2.549-2.372c-0.392-0.654-0.65-1.324-0.774-2.01c-0.125-0.688-0.187-1.475-0.187-2.363v-7.098
		c0-0.248-0.01-0.471-0.029-0.667c-0.02-0.196-0.062-0.389-0.127-0.579c-0.066-0.189-0.164-0.382-0.294-0.578h4.432l-0.328,0.607
		c-0.068,0.17-0.109,0.337-0.123,0.5c-0.014,0.164-0.021,0.402-0.021,0.716v7.118c0,0.797,0.075,1.451,0.226,1.961
		s0.462,0.994,0.934,1.451c0.38,0.353,0.822,0.617,1.327,0.794c0.505,0.177,1.052,0.265,1.642,0.265
		c0.603,0,1.147-0.117,1.632-0.354c0.354-0.17,0.819-0.502,1.396-1l0.374-0.313v-9.921c0-0.261-0.01-0.48-0.029-0.657
		c-0.02-0.177-0.062-0.363-0.127-0.559l-0.313-0.607h4.451c-0.131,0.183-0.229,0.359-0.294,0.529
		c-0.065,0.17-0.111,0.376-0.137,0.618c-0.026,0.242-0.04,0.467-0.04,0.676v10.157c0,0.078,0.02,0.17,0.059,0.275
		c0.039,0.104,0.079,0.202,0.118,0.293c0.039,0.092,0.078,0.18,0.118,0.266C623.332,388.99,623.391,389.099,623.469,389.229z"/>
	<path d="M642.057,389.229c-0.196,0.039-0.386,0.071-0.568,0.098c-0.223,0.065-0.418,0.163-0.588,0.294
		c-1.15,0.929-1.745,1.406-1.784,1.432c-0.732,0.536-1.418,0.922-2.059,1.156c-0.811,0.301-1.745,0.451-2.804,0.451
		c-2.274,0-4.255-0.811-5.941-2.431c-1.738-1.673-2.607-3.68-2.607-6.02c0-2.339,0.755-4.362,2.265-6.068s3.375-2.559,5.598-2.559
		c0.811,0,1.588,0.095,2.333,0.285s1.392,0.441,1.941,0.755l0.392,0.235v-6.961c0-0.118,0-0.196,0-0.235
		c0-0.222-0.02-0.412-0.059-0.568c-0.039-0.157-0.088-0.275-0.147-0.353c-0.059-0.079-0.108-0.144-0.147-0.196h3.863v19.432
		c0,0.104,0.013,0.209,0.039,0.313s0.052,0.21,0.079,0.313L642.057,389.229z M638.234,387.562v-6.765l-0.471-0.549
		c-0.34-0.392-0.86-0.732-1.559-1.02c-0.7-0.288-1.396-0.432-2.088-0.432c-1.425,0-2.618,0.5-3.579,1.5
		c-0.96,1-1.441,2.226-1.441,3.677c0,1.425,0.431,2.646,1.294,3.666s1.961,1.589,3.294,1.707c0.785,0,1.503-0.086,2.157-0.256
		c0.653-0.17,1.209-0.457,1.667-0.862L638.234,387.562z"/>
	<path d="M649.077,392.17h-4.432l0.314-0.607c0.052-0.118,0.091-0.299,0.118-0.541c0.026-0.241,0.039-0.467,0.039-0.677v-13.428
		c0-0.13-0.044-0.278-0.132-0.441s-0.194-0.291-0.319-0.383h3.961v14.252c0,0.249,0.009,0.472,0.028,0.667
		c0.019,0.197,0.059,0.381,0.122,0.551L649.077,392.17z M649.077,372.092c0,0.575-0.219,1.068-0.657,1.48
		c-0.438,0.412-0.958,0.618-1.559,0.618c-0.588,0-1.102-0.206-1.54-0.618c-0.438-0.412-0.657-0.905-0.657-1.48
		c0-0.602,0.216-1.125,0.647-1.569c0.432-0.444,0.948-0.667,1.549-0.667c0.614,0,1.137,0.215,1.568,0.647
		C648.861,370.935,649.077,371.465,649.077,372.092z"/>
	<path d="M669.076,384.053c0,2.379-0.84,4.408-2.52,6.088s-3.716,2.52-6.108,2.52c-2.313,0-4.307-0.85-5.98-2.549
		s-2.51-3.719-2.51-6.059c0-2.313,0.833-4.31,2.5-5.99c1.667-1.679,3.664-2.52,5.99-2.52c2.392,0,4.428,0.827,6.108,2.48
		C668.236,379.677,669.076,381.687,669.076,384.053z M665.763,384.17c0-1.49-0.513-2.755-1.539-3.794
		c-1.026-1.04-2.285-1.559-3.775-1.559c-1.373,0-2.578,0.533-3.618,1.598c-1.039,1.065-1.559,2.317-1.559,3.755
		c0,1.412,0.516,2.634,1.549,3.667c1.033,1.033,2.242,1.55,3.627,1.55c1.438,0,2.683-0.514,3.735-1.539
		C665.236,386.82,665.763,385.596,665.763,384.17z"/>
	<path d="M690.547,392.17h-13.138l0.314-0.607c0.104-0.301,0.157-0.707,0.157-1.217v-20.233c0-0.34-0.052-0.661-0.157-0.961
		l-0.314-0.608h13.138v3.941c-0.131-0.079-0.266-0.147-0.402-0.206c-0.138-0.059-0.256-0.104-0.354-0.137s-0.255-0.056-0.471-0.069
		c-0.215-0.013-0.389-0.02-0.52-0.02c-0.144,0-0.277,0-0.402,0c-0.123,0-0.225,0-0.303,0h-6.53v6.49h4.274c0.236,0,0.405,0,0.51,0
		c0.157,0,0.298-0.006,0.422-0.02c0.124-0.013,0.262-0.052,0.412-0.118s0.33-0.17,0.539-0.313v4.412
		c-0.105-0.065-0.229-0.137-0.373-0.216c-0.144-0.079-0.293-0.137-0.451-0.176c-0.156-0.04-0.326-0.059-0.51-0.059
		c-0.234,0-0.431,0-0.588,0h-4.235v6.607h6.53c0.326,0,0.562,0,0.705,0c0.118,0,0.209,0,0.275,0c0.3,0,0.529-0.021,0.686-0.068
		c0.157-0.045,0.287-0.094,0.393-0.146c0.052-0.026,0.183-0.098,0.393-0.216V392.17z"/>
	<path d="M712.762,392.17h-5.529c0.039-0.197,0.084-0.402,0.137-0.613c0.053-0.119,0.026-0.264-0.078-0.436
		c-0.026-0.053-0.268-0.357-0.726-0.912l-3.351-4.057l-3.666,4.295c-0.381,0.476-0.578,0.727-0.591,0.752
		c-0.104,0.186-0.138,0.331-0.099,0.437c0.065,0.185,0.131,0.363,0.196,0.534h-5.49c0.196-0.145,0.333-0.25,0.411-0.316
		c0.158-0.119,0.278-0.244,0.363-0.377s0.304-0.363,0.656-0.694c0.209-0.198,0.34-0.317,0.393-0.356l5.66-6.784l-4.797-5.825
		c-0.157-0.169-0.33-0.373-0.52-0.608c-0.189-0.235-0.317-0.402-0.383-0.5c-0.065-0.098-0.176-0.206-0.333-0.323
		s-0.281-0.216-0.372-0.294h5.49c-0.053,0.065-0.099,0.151-0.138,0.255c-0.04,0.105-0.079,0.21-0.118,0.315
		c-0.053,0.118-0.033,0.256,0.059,0.413c0.025,0.053,0.232,0.308,0.621,0.767l2.734,3.193l2.527-3.003
		c0.326-0.392,0.516-0.627,0.568-0.706c0.196-0.274,0.262-0.483,0.196-0.627c-0.039-0.078-0.059-0.179-0.059-0.304
		c0-0.124-0.013-0.226-0.039-0.304h5.372c-0.223,0.143-0.406,0.273-0.551,0.391c-0.145,0.117-0.262,0.234-0.354,0.352l-0.971,1.184
		l-4.615,5.573l5.395,6.635c0.274,0.291,0.496,0.528,0.666,0.714c0.234,0.251,0.389,0.42,0.461,0.506
		c0.07,0.086,0.186,0.195,0.342,0.326C712.389,391.906,712.565,392.039,712.762,392.17z"/>
	<path d="M731.311,384.062c0,2.324-0.788,4.338-2.363,6.043c-1.575,1.703-3.48,2.555-5.715,2.555c-0.824,0-1.605-0.094-2.344-0.283
		c-0.738-0.19-1.383-0.448-1.932-0.775l-0.393-0.234v6.372c0,0.235,0.01,0.45,0.03,0.647c0.02,0.195,0.068,0.395,0.147,0.598
		c0.078,0.202,0.176,0.389,0.293,0.559h-4.45c0.117-0.17,0.222-0.372,0.313-0.607c0.053-0.117,0.092-0.297,0.117-0.539
		c0.026-0.241,0.039-0.46,0.039-0.656v-17.476c0-0.091-0.016-0.199-0.049-0.323c-0.032-0.124-0.055-0.225-0.068-0.304l-0.176-0.627
		c0.234-0.026,0.447-0.065,0.637-0.118c0.189-0.052,0.363-0.144,0.52-0.274c1.451-1.163,2.365-1.855,2.745-2.077
		c1.15-0.666,2.451-0.999,3.901-0.999c2.354,0,4.387,0.797,6.099,2.39C730.428,379.578,731.311,381.621,731.311,384.062z
		 M727.918,384.278c0-1.461-0.412-2.688-1.235-3.679c-0.876-1.043-2.046-1.631-3.51-1.762c-0.091,0-0.192-0.003-0.304-0.01
		c-0.111-0.006-0.18-0.01-0.206-0.01c-1.347,0-2.464,0.405-3.353,1.214l-0.746,0.665v6.733l0.471,0.566
		c0.34,0.393,0.863,0.729,1.569,1.009s1.405,0.421,2.098,0.421c1.451,0,2.683-0.5,3.696-1.498
		C727.411,386.93,727.918,385.713,727.918,384.278z"/>
	<path d="M750.564,385.504h-13.804l0.313,0.784c0.393,0.968,1.026,1.726,1.902,2.274c0.771,0.471,1.719,0.785,2.843,0.941
		c0.118,0.014,0.231,0.023,0.343,0.029c0.111,0.007,0.227,0.01,0.344,0.01c0.745,0,1.51-0.148,2.294-0.445
		c0.641-0.246,1.209-0.551,1.706-0.912l0.607-0.446v4.431c-0.065-0.014-0.193-0.062-0.382-0.146
		c-0.19-0.085-0.343-0.121-0.461-0.107c-0.901,0.209-1.729,0.385-2.48,0.529c-0.752,0.144-1.356,0.215-1.813,0.215
		c-1.229,0-2.373-0.222-3.432-0.665c-1.059-0.444-2.004-1.067-2.834-1.87c-0.83-0.804-1.463-1.734-1.901-2.791
		c-0.438-1.059-0.657-2.142-0.657-3.252c0-1.566,0.405-3.042,1.217-4.426c0.758-1.28,1.773-2.285,3.049-3.017
		c1.273-0.731,2.604-1.097,3.99-1.097c1.738,0,3.287,0.366,4.646,1.096c1.516,0.809,2.654,2.002,3.412,3.581
		c0.326,0.678,0.562,1.461,0.705,2.348c0.014,0.091,0.092,0.796,0.236,2.113L750.564,385.504z M746.8,382.386l-0.294-0.78
		c-0.287-0.819-0.905-1.515-1.854-2.087c-0.947-0.572-1.971-0.858-3.068-0.858c-1.02,0-1.974,0.332-2.862,0.995
		c-0.798,0.598-1.372,1.3-1.726,2.107l-0.274,0.624H746.8z"/>
	<path d="M760.094,379.288c-0.105,0-0.271-0.016-0.5-0.049s-0.402-0.049-0.52-0.049c-0.209,0-0.438,0.026-0.687,0.079
		c-0.575,0.131-1.071,0.406-1.49,0.825l-0.353,0.354v9.897c0,0.249,0.01,0.473,0.029,0.668c0.02,0.197,0.064,0.393,0.137,0.59
		c0.072,0.196,0.174,0.386,0.305,0.568h-4.451l0.313-0.608c0.104-0.301,0.157-0.706,0.157-1.218v-10.407
		c0-0.118-0.008-0.209-0.02-0.274c-0.027-0.092-0.053-0.184-0.079-0.275c-0.013-0.065-0.026-0.131-0.039-0.196
		c-0.026-0.091-0.065-0.183-0.118-0.275c0.053-0.013,0.17-0.039,0.354-0.079c0.184-0.039,0.34-0.104,0.471-0.196
		c0.262-0.17,0.732-0.595,1.412-1.274c0.51-0.51,1.163-0.902,1.961-1.177c0.64-0.118,1.159-0.212,1.559-0.284
		c0.398-0.072,0.699-0.16,0.901-0.265c0.202-0.104,0.422-0.242,0.657-0.412V379.288z"/>
	<path d="M767.055,392.17h-4.432l0.313-0.607c0.052-0.118,0.091-0.299,0.118-0.541c0.025-0.241,0.039-0.467,0.039-0.677v-13.428
		c0-0.13-0.045-0.278-0.133-0.441c-0.087-0.164-0.193-0.291-0.318-0.383h3.961v14.252c0,0.249,0.009,0.472,0.027,0.667
		c0.02,0.197,0.06,0.381,0.123,0.551L767.055,392.17z M767.055,372.092c0,0.575-0.22,1.068-0.658,1.48
		c-0.438,0.412-0.957,0.618-1.559,0.618c-0.588,0-1.102-0.206-1.539-0.618c-0.438-0.412-0.656-0.905-0.656-1.48
		c0-0.602,0.215-1.125,0.646-1.569s0.947-0.667,1.549-0.667c0.615,0,1.138,0.215,1.568,0.647
		C766.838,370.935,767.055,371.465,767.055,372.092z"/>
	<path d="M787.172,385.504h-13.805l0.314,0.784c0.393,0.968,1.025,1.726,1.902,2.274c0.771,0.471,1.719,0.785,2.842,0.941
		c0.118,0.014,0.232,0.023,0.344,0.029c0.111,0.007,0.226,0.01,0.344,0.01c0.744,0,1.51-0.148,2.293-0.445
		c0.641-0.246,1.209-0.551,1.707-0.912l0.607-0.446v4.431c-0.066-0.014-0.193-0.062-0.383-0.146
		c-0.189-0.085-0.343-0.121-0.461-0.107c-0.901,0.209-1.729,0.385-2.48,0.529c-0.752,0.144-1.355,0.215-1.812,0.215
		c-1.229,0-2.373-0.222-3.432-0.665c-1.059-0.444-2.004-1.067-2.834-1.87c-0.83-0.804-1.464-1.734-1.902-2.791
		c-0.438-1.059-0.656-2.142-0.656-3.252c0-1.566,0.404-3.042,1.216-4.426c0.758-1.28,1.774-2.285,3.049-3.017
		c1.274-0.731,2.604-1.097,3.99-1.097c1.738,0,3.288,0.366,4.647,1.096c1.516,0.809,2.653,2.002,3.412,3.581
		c0.326,0.678,0.561,1.461,0.705,2.348c0.014,0.091,0.092,0.796,0.235,2.113L787.172,385.504z M783.406,382.386l-0.293-0.78
		c-0.288-0.819-0.906-1.515-1.854-2.087s-1.971-0.858-3.068-0.858c-1.02,0-1.975,0.332-2.863,0.995
		c-0.797,0.598-1.372,1.3-1.725,2.107l-0.275,0.624H783.406z"/>
	<path d="M804.838,392.17h-4.451c0.131-0.183,0.229-0.359,0.295-0.529c0.064-0.17,0.11-0.377,0.137-0.619
		c0.025-0.242,0.039-0.468,0.039-0.678v-7.127c0-0.812-0.065-1.434-0.196-1.866c-0.17-0.563-0.497-1.073-0.979-1.532
		c-0.38-0.366-0.818-0.638-1.314-0.814c-0.497-0.177-1.039-0.265-1.627-0.265c-0.602,0-1.145,0.118-1.628,0.354
		c-0.366,0.183-0.837,0.517-1.411,1.001l-0.354,0.314v9.936c0,0.249,0.01,0.473,0.029,0.668c0.02,0.197,0.062,0.38,0.127,0.55
		l0.314,0.608h-4.451l0.314-0.607c0.051-0.118,0.091-0.299,0.117-0.541c0.025-0.241,0.039-0.467,0.039-0.677v-10.169
		c0-0.091-0.02-0.183-0.059-0.274c-0.039-0.092-0.078-0.184-0.118-0.275l-0.313-0.609c0.235-0.079,0.412-0.13,0.529-0.157
		c0.223-0.065,0.405-0.144,0.549-0.236c0.863-0.628,1.726-1.256,2.588-1.884c1.308-0.798,2.738-1.198,4.295-1.198
		c1.281,0,2.467,0.308,3.559,0.923s1.938,1.413,2.539,2.395c0.405,0.667,0.68,1.394,0.824,2.179
		c0.091,0.524,0.137,1.256,0.137,2.199v7.106c0,0.262,0.01,0.481,0.029,0.657c0.02,0.178,0.062,0.363,0.127,0.561L804.838,392.17z"
		/>
	<path d="M819.289,380.445l-0.961-0.745c-0.354-0.274-0.805-0.474-1.354-0.598c-0.549-0.125-1.163-0.187-1.843-0.187
		c-1.32,0-2.458,0.516-3.411,1.546c-0.955,1.031-1.432,2.238-1.432,3.621c0,1.461,0.477,2.72,1.432,3.777
		c0.953,1.058,2.137,1.586,3.549,1.586c0.627,0,1.251-0.1,1.872-0.301c0.62-0.199,1.075-0.422,1.362-0.667l0.569-0.483v4.393
		c-0.144-0.053-0.265-0.092-0.362-0.118c-0.099-0.026-0.2-0.039-0.305-0.039c-0.078,0-0.66,0.094-1.745,0.281
		c-0.588,0.1-1.046,0.149-1.372,0.149c-0.17,0-0.301-0.006-0.393-0.02c-2.34-0.209-4.229-1.129-5.666-2.761
		c-1.438-1.632-2.157-3.604-2.157-5.915c0-2.271,0.804-4.217,2.411-5.836c1.608-1.619,3.543-2.429,5.805-2.429
		c0.418,0,0.912,0.059,1.48,0.177s1.146,0.242,1.734,0.373c0.092,0,0.189-0.006,0.295-0.02c0.209-0.052,0.372-0.085,0.49-0.098
		V380.445z"/>
	<path d="M838.72,385.504h-13.804l0.313,0.784c0.393,0.968,1.026,1.726,1.902,2.274c0.771,0.471,1.719,0.785,2.843,0.941
		c0.117,0.014,0.232,0.023,0.344,0.029c0.11,0.007,0.225,0.01,0.343,0.01c0.745,0,1.51-0.148,2.294-0.445
		c0.641-0.246,1.209-0.551,1.706-0.912l0.608-0.446v4.431c-0.066-0.014-0.193-0.062-0.383-0.146
		c-0.189-0.085-0.344-0.121-0.461-0.107c-0.902,0.209-1.729,0.385-2.48,0.529c-0.752,0.144-1.356,0.215-1.813,0.215
		c-1.229,0-2.372-0.222-3.432-0.665c-1.059-0.444-2.003-1.067-2.833-1.87c-0.83-0.804-1.465-1.734-1.902-2.791
		c-0.438-1.059-0.656-2.142-0.656-3.252c0-1.566,0.404-3.042,1.215-4.426c0.758-1.28,1.775-2.285,3.049-3.017
		c1.275-0.731,2.605-1.097,3.99-1.097c1.738,0,3.288,0.366,4.647,1.096c1.517,0.809,2.653,2.002,3.412,3.581
		c0.326,0.678,0.562,1.461,0.706,2.348c0.013,0.091,0.091,0.796,0.234,2.113L838.72,385.504z M834.955,382.386l-0.294-0.78
		c-0.288-0.819-0.905-1.515-1.853-2.087c-0.948-0.572-1.971-0.858-3.069-0.858c-1.02,0-1.974,0.332-2.862,0.995
		c-0.798,0.598-1.373,1.3-1.726,2.107l-0.274,0.624H834.955z"/>
</g>
</svg>
