<?xml version="1.0" encoding="UTF-8"?>
<svg width="452px" height="195px" viewBox="0 0 452 195" version="1.1" xmlns="http://www.w3.org/2000/svg" xmlns:xlink="http://www.w3.org/1999/xlink">
    <!-- Generator: Sketch 41 (35326) - http://www.bohemiancoding.com/sketch -->
    <title>star-wars-logo</title>
    <desc>Created with Sketch.</desc>
    <defs></defs>
    <g id="coucou" stroke="none" stroke-width="1" fill="none" fill-rule="evenodd">
        <g id="Star-Wars-description" transform="translate(-834.000000, -351.000000)" fill="#132448">
            <g id="hover" transform="translate(834.000000, 351.000000)">
                <g id="star-wars-logo">
                    <g id="Logo">
                        <g id="Group">
                            <path d="M1.28463158,99.8863636 L3.85389474,107.457955 L31.7963308,189.846818 L33.1122286,193.727727 L57.3326316,193.727727 L58.7008662,189.964091 L71.3147248,155.262955 C72.4022436,158.434773 73.5767639,161.854091 74.7519639,165.270682 C79.0952421,177.902727 83.4466767,190.511591 83.4466767,190.511591 L84.7754887,194.3625 L109.216794,194.3625 L110.539489,190.496591 L138.840126,107.771591 L141.434538,100.189773 L105.915495,100.189773 L104.590081,104.050227 C102.158373,111.133552 99.7105429,118.211298 97.2466105,125.283409 C96.8836511,124.236818 96.5057383,123.135682 96.1149113,121.983409 L89.9316872,103.767955 L88.6157895,99.8884091 L54.2780632,99.8884091 L52.9370165,103.713409 L45.4807158,124.967727 C42.9722953,117.889916 40.4725861,110.809002 37.981594,103.725 L36.639188,99.9081818 L32.6044932,99.9054545 L9.26022256,99.8904545 L1.28463158,99.8863636 Z M84.5301173,105.613636 L90.7140211,123.831818 C94.0601805,133.682727 97.0467789,141.561136 97.4362466,141.561136 C97.4425261,141.560902 97.4485306,141.558492 97.4532391,141.554318 C97.8814496,141.174545 109.984854,105.914318 109.984854,105.914318 L133.443314,105.914318 L105.142677,188.638636 L88.8366917,188.638636 C88.8366917,188.638636 71.4343519,138.218182 71.5057203,138.025909 L53.3393985,188.003182 L37.1999398,188.003182 L9.25410526,105.615 L32.5983759,105.630682 C32.5983759,105.630682 45.3862376,141.993409 45.5568421,141.993409 C45.5568421,141.993409 45.5568421,141.992045 45.5582015,141.991364 L58.3181955,105.613636 L84.5301173,105.613636 Z M285.140632,137.683636 C285.150827,136.238182 285.158983,134.615455 285.16782,132.992727 C285.174617,131.560909 285.181414,130.127045 285.184132,128.813182 L293.163802,128.855455 C297.748373,128.88 304.648,128.918182 305.993805,129.300682 C307.710045,130.347273 308.668421,131.963182 308.563068,133.637045 C308.506653,134.541818 308.077762,136.204773 305.838833,137.179773 C304.590226,137.723864 302.600746,137.893636 292.594214,137.893636 C289.420018,137.893636 286.971741,137.800909 285.141311,137.684318 L285.140632,137.683636 Z M451.709768,99.8863636 L393.35283,99.8863636 C381.91757,99.8863636 375.153883,104.413636 371.493702,108.211364 C365.540896,114.388636 364.139356,122.166818 364.246069,125.833636 C364.252866,126.139091 364.248788,126.452727 364.24471,126.779318 C364.193053,132.738409 365.067146,139.485 376.125853,150.567955 C378.313125,153.036136 381.971266,157.1775 383.352415,159.235227 C380.329792,159.608182 372.667543,159.608182 364.621263,159.608182 L361.203735,159.608182 L357.055531,159.606818 C342.859332,159.606818 330.888469,159.565909 328.434755,159.079773 C328.091507,158.854773 327.61028,158.468864 327.080794,158.007955 C331.986183,154.977955 336.945269,150.281591 339.280036,146.265682 C340.697889,143.823409 342.260517,139.652045 342.916427,136.556591 C344.370983,129.670227 341.971645,121.362955 336.497347,114.329318 C330.109534,106.120227 320.816686,101.211136 311.001829,100.856591 L310.898514,100.851136 L247.974677,100.851136 L247.985552,106.587273 L248.141883,188.855455 L248.154117,194.541818 L253.822809,194.567045 L279.428439,194.680909 L285.125678,194.706136 L285.159663,188.989773 L285.269774,169.881818 C285.793143,170.379545 286.332824,170.897727 286.887459,171.431591 C304.167453,188.059773 309.967326,192.666818 315.105173,193.832727 C316.516908,194.147727 318.851675,194.671364 360.411886,194.682273 L362.393889,194.682273 C384.893973,194.682273 396.187176,194.682273 402.905323,194.031136 C410.599519,193.284545 413.075663,191.533636 416.784782,188.503636 L416.909167,188.402727 C424.529955,182.187273 428.551056,172.782273 427.403723,163.860682 C426.656054,158.058409 425.126731,155.6475 418.900686,147.856364 L417.051904,145.538182 C414.883663,142.820455 412.262743,139.538182 410.5064,137.329091 C409.090586,135.550909 407.977919,133.973182 407.306376,132.940227 C408.187946,132.938182 409.333239,132.936136 410.813624,132.936136 C422.50785,132.936136 445.682195,133.013864 445.914653,133.015227 L451.626845,133.033636 L451.640439,127.304318 L451.694815,105.620455 L451.709768,99.8863636 L451.709768,99.8863636 Z M292.594893,143.616818 C303.557083,143.616818 305.782418,143.446364 308.115146,142.429091 C315.989462,138.994773 316.410195,128.849318 308.857377,124.347273 C307.202989,123.358636 305.07689,123.196364 293.194388,123.130909 L279.444072,123.058636 C279.557582,123.166364 279.400571,142.785 279.400571,142.785 C279.400571,142.785 282.844608,143.616818 292.594893,143.616818 L292.594893,143.616818 Z M445.990779,105.609545 L445.936403,127.292727 C445.936403,127.292727 422.654665,127.214318 410.817702,127.214318 C406.880205,127.214318 404.208986,127.224545 404.081883,127.248409 C402.042785,127.62 400.7432,131.971364 401.322304,133.881136 C401.606418,134.846591 403.740674,138.002045 406.050292,140.899773 C408.354472,143.7975 412.141756,148.542955 414.452734,151.438636 C420.386508,158.865 421.200108,160.331591 421.747946,164.596364 C422.640391,171.523636 419.374436,179.020909 413.312878,183.964773 C407.236367,188.923636 407.502809,188.958409 362.399326,188.958409 L360.418683,188.958409 C332.98738,188.951591 318.47988,188.7225 316.367374,188.249318 C312.616794,187.398409 306.639519,182.505 290.841269,167.300455 C285.158983,161.837045 279.92258,157.052727 279.65342,157.051364 C279.646623,157.051364 279.643224,157.056136 279.643224,157.062955 L279.456986,188.958409 L253.852716,188.845227 L253.694346,106.577045 L310.797239,106.577045 C328.007224,107.200909 339.65455,124.399773 337.336776,135.368864 C336.809329,137.8575 335.468962,141.465682 334.354935,143.382955 C332.065708,147.317045 326.239326,152.369318 321.50862,154.5375 C319.761792,155.330455 318.335783,156.253636 318.335783,156.582955 C318.335783,157.806136 324.086039,163.487045 326.238647,164.389773 C328.077913,165.160227 333.435302,165.332727 357.05757,165.332727 L364.622623,165.332727 C388.369275,165.332727 387.175044,165.162273 389.008872,161.226136 C390.293504,158.485227 389.316776,156.846818 380.280174,146.636591 C368.832,135.209318 370.03031,129.735682 369.952144,125.6925 C369.789017,120.848864 373.591254,105.609545 393.354189,105.609545 L445.992138,105.6075 L445.990779,105.609545 Z M176.567513,151.573636 C177.648235,148.619318 179.102791,144.625909 181.080716,139.203409 C181.699242,137.503636 182.266791,135.947727 182.786761,134.520682 L184.333756,139.098409 C184.793913,140.462045 186.818737,146.447045 188.554689,151.568864 C183.391693,151.568864 179.504493,151.568864 176.566833,151.574318 L176.567513,151.573636 Z M205.897895,99.2406818 L201.837371,99.2447727 L162.902159,99.2802273 L158.839597,99.2836364 L157.514183,103.137273 L129.141498,185.582727 L126.557281,193.091591 L134.475777,193.173409 L157.655561,193.4175 L161.958057,193.463182 L163.184914,189.326591 L165.65698,180.9825 L199.075074,181.250455 L201.719104,189.728182 L202.978586,193.761136 L207.190683,193.742727 L230.606322,193.635 L238.590749,193.598182 L235.968469,186.032045 L207.232144,103.090909 L205.897895,99.2386364 L205.897895,99.2406818 Z M183.012421,117.128864 C182.951248,117.3675 179.342045,127.301591 175.720608,137.237045 C172.069263,147.252955 168.405005,157.270909 168.354707,157.348636 C168.451224,157.319318 181.418526,157.290682 189.728529,157.290682 C193.617768,157.290682 196.486779,157.2975 196.539116,157.311136 C196.539946,157.312419 196.54063,157.313791 196.541155,157.315227 L196.541155,157.313864 L196.539116,157.3125 C196.39366,156.933409 183.052523,117.612273 183.011062,117.128182 L183.011062,117.123409 L183.011062,117.1275 L183.012421,117.128864 Z M201.84145,104.967955 L230.577774,187.909091 L207.162135,188.016136 L203.274256,175.559318 L161.40818,175.2225 L157.713335,187.694318 L134.533552,187.450227 L162.906917,105.004773 L201.842129,104.968636 L201.84145,104.967955 Z M217.238677,0 L211.522406,0.00886363636 L82.0274647,0.201818182 C74.5684451,0.201818182 67.6402707,3.43363636 62.5268932,9.30409091 C58.3793684,14.0631818 55.6571729,20.3427273 55.2473143,26.1020455 C54.5526617,35.7688636 56.7698406,39.2625 67.4118917,51.2884091 C70.4990857,54.7793182 73.4353865,58.0977273 74.4155128,59.5070455 C74.4049692,59.5457705 74.3920299,59.5837988 74.3767699,59.6209091 C74.3665744,59.6297727 74.349582,59.6427273 74.3271519,59.6584091 L73.7405714,60.0675 L0,60.0675 L0,94.5040909 L56.8180992,94.5040909 C77.1614977,94.5040909 87.202015,94.485 93.1174376,94.05 C99.8858827,93.5522727 102.045967,92.3877273 105.280656,90.3722727 L105.684397,90.1213636 C115.856776,83.8097727 121.099976,68.7804545 116.68397,58.5872727 C115.321853,55.4679545 106.696469,44.4579545 105.717702,43.2122727 C103.00978,39.7738636 98.5400782,34.0977273 97.833191,32.4552273 C97.8501835,32.3175 97.8841684,32.1743182 97.9195128,32.0747727 C98.0371008,32.0447727 98.2627609,32.0052273 98.633197,32.0052273 L140.614821,31.8852273 L140.614821,94.5027273 L176.383314,94.5027273 L176.383314,31.9179545 L217.237997,31.9179545 L217.237997,0 L217.238677,0 Z M211.531922,5.73272727 L211.531922,26.1954545 L170.677919,26.1954545 L170.677919,88.7795455 L146.320896,88.7795455 L146.320896,26.1463636 L98.633197,26.2827273 C92.8849805,26.2827273 92.1148812,30.8761364 92.1148812,32.6359091 C92.1148812,34.7972727 93.5198195,36.9572727 101.236445,46.7597727 C106.243789,53.1279545 110.843994,59.4811364 111.450286,60.8693182 C114.760421,68.5111364 110.480355,80.4170455 102.684884,85.2538636 C97.1283429,88.6970455 98.0778827,88.7815909 56.8187789,88.7815909 L5.70539549,88.7815909 L5.70539549,65.7920455 L75.5308992,65.7920455 L77.5924271,64.3534091 C78.9830917,63.3811364 79.789215,62.0420455 80.0957594,60.2113636 C80.5239699,57.5781818 80.3030677,57.2345455 71.6810827,47.49 C61.4883128,35.97 60.4116692,33.8672727 60.9391158,26.5104545 C61.5372511,18.1186364 68.9983098,5.92636364 82.0369805,5.92636364 L211.531922,5.73272727 L211.531922,5.73272727 Z M251.978105,53.31 C253.738526,48.2822727 256.189522,41.3918182 258.40806,35.1995455 C260.51037,41.3836364 262.836301,48.2536364 264.53215,53.295 L251.978105,53.31 Z M281.504241,0.644318182 L234.002099,0.644318182 L232.674647,4.5 L204.331188,86.8840909 L201.719783,94.4754545 L237.726851,94.4754545 L238.974779,90.4527273 L241.442087,82.4959091 L274.70249,82.6431818 L277.269035,91.0677273 L278.496571,95.0952273 L282.695753,95.1190909 L306.068571,95.2472727 L314.126406,95.2915909 L311.493931,87.6538636 L282.836451,4.49863636 L281.504241,0.643636364 L281.504241,0.644318182 Z M244.051453,59.0440909 L272.439092,59.0086364 C272.536968,59.0086364 258.644595,18.0818182 258.551477,18.0531818 C258.450881,18.0497727 243.731994,59.0440909 244.052132,59.0440909 L244.051453,59.0440909 Z M277.43828,6.36818182 L306.097119,89.5227273 L282.724301,89.3945455 L278.92954,76.9377273 L237.249023,76.7515909 L233.524271,88.7502273 L209.725281,88.7502273 L238.06874,6.3675 L277.438959,6.3675 L277.43828,6.36818182 Z M359.825985,28.6990909 L366.894857,28.6990909 C376.90003,28.6990909 378.881353,28.8661364 380.102773,29.4013636 C382.420547,30.4084091 382.655723,30.8972727 382.837883,32.9468182 C383.021402,34.9854545 382.768553,35.8056818 380.753925,37.3206818 C380.687314,37.3704545 380.637017,37.4093182 380.594875,37.4393182 C379.264704,37.6868182 374.328048,37.6868182 368.150941,37.6868182 L359.827344,37.6868182 L359.827344,28.7004545 L359.825985,28.6990909 Z M358.014586,0.644318182 L322.495543,0.644318182 L322.495543,94.4747727 L360.347314,94.4747727 L360.326923,88.7304545 L360.264391,70.6895455 L360.863886,71.2602273 C378.6856,88.2702273 383.941035,92.1334091 387.40886,93.3129545 C390.071242,94.2129545 394.52871,94.4740909 418.925155,94.4740909 L451.88717,94.4740909 L451.775699,88.6397727 L451.340692,65.9727273 L451.236018,60.4397727 L445.719579,60.3606818 L403.351886,59.7511364 L402.464198,59.0590909 C402.182123,58.8388636 401.838875,58.5477273 401.473877,58.2163636 L402.335056,57.7029545 C413.035561,51.2979545 418.643759,40.9561364 417.718689,29.3325 C417.102881,21.4915909 415.706779,17.9584091 410.928493,12.1602273 C406.231771,6.45886364 399.786863,2.64545455 392.779164,1.42431818 C388.884487,0.746590909 369.327501,0.645 358.015266,0.645 L358.014586,0.644318182 Z M354.121269,43.41 L368.151621,43.41 C381.80338,43.41 382.230232,43.3670455 384.178929,41.8997727 C387.658989,39.2815909 388.891964,36.5836364 388.522208,32.4409091 C388.144295,28.1693182 386.503501,25.9445455 382.387922,24.1554545 C380.070147,23.1395455 377.836656,22.9759091 366.895537,22.9759091 L354.121269,22.9759091 L354.121269,43.41 L354.121269,43.41 Z M358.014586,6.36818182 C376.502406,6.36818182 389.332409,6.63409091 391.800397,7.06227273 C397.507152,8.05772727 402.66335,11.1122727 406.52948,15.8059091 C410.57369,20.715 411.5008,23.0604545 412.028247,29.7865909 C412.785432,39.2815909 408.283104,47.4729545 399.404192,52.7897727 C396.814538,54.3422727 394.155555,55.8525 393.490809,56.1525 C392.47126,56.6175 392.6072,57.0613636 394.432872,59.2070455 C395.608752,60.5890909 397.649889,62.5561364 398.961708,63.5795455 L401.358328,65.4477273 L445.635976,66.0838636 L446.070983,88.7509091 L418.923795,88.7509091 C397.927886,88.7509091 391.207699,88.5579545 389.23929,87.8918182 C386.293474,86.8895455 379.204211,80.8663636 364.795946,67.1140909 L354.510737,57.2972727 L354.619489,88.7509091 L328.199579,88.7509091 L328.199579,6.36818182 L358.015266,6.36818182 L358.014586,6.36818182 Z" id="Shape"></path>
                        </g>
                    </g>
                </g>
            </g>
        </g>
    </g>
</svg>